# xmcd
#
# Track frame offsets:
#	150
#	8045
#	61497
#	149789
#	174421
#	195094
#	242004
#
# Disc length: 3993 seconds
#
# Revision: 1
# Processed by: cddbd v1.5.2PL0 Copyright (c) Steve Scherf et al.
# Submitted via: audiograbber 1.83.01
#
DISCID=580f9707
DTITLE=Grateful Dead - 78-01-18 Stockton Civic Auditorium, Stockton CA
DYEAR=1900
DGENRE=
TTITLE0=Tuning
TTITLE1=Terrapin Station
TTITLE2=Playing In The Band
TTITLE3=Passenger
TTITLE4=Space
TTITLE5=Estimated Prophet
TTITLE6=Stella Blue
EXTD=
EXTT0=
EXTT1=
EXTT2=
EXTT3=
EXTT4=
EXTT5=
EXTT6=
PLAYORDER=
